<svg xmlns="http://www.w3.org/2000/svg" xmlns:xlink="http://www.w3.org/1999/xlink" width="1080" zoomAndPan="magnify" viewBox="0 0 810 809.999993" height="1080" preserveAspectRatio="xMidYMid meet" version="1.0"><defs><clipPath id="c71efed77c"><path d="M 133 133.722656 L 680.453125 133.722656 L 680.453125 675.972656 L 133 675.972656 Z M 133 133.722656 " clip-rule="nonzero"/></clipPath></defs><g clip-path="url(#c71efed77c)"><path fill="#e63822" d="M 305.773438 415.976562 C 310.871094 466.894531 354.148438 506.78125 406.765625 506.78125 C 459.382812 506.78125 502.664062 466.894531 507.757812 415.976562 C 507.757812 412.585938 508.601562 409.1875 508.601562 405.789062 C 508.601562 349.777344 462.777344 304.804688 406.761719 304.804688 C 350.753906 304.804688 305.773438 350.628906 305.773438 405.789062 C 305.773438 408.339844 305.773438 412.582031 305.773438 415.976562 M 133.496094 403.246094 C 133.496094 252.1875 255.707031 129.976562 406.765625 129.976562 C 557.828125 129.976562 680.886719 252.1875 680.886719 403.246094 C 680.886719 554.308594 557.828125 677.363281 406.765625 677.363281 C 255.710938 677.363281 133.496094 554.308594 133.496094 403.246094 " fill-opacity="1" fill-rule="nonzero"/></g></svg>